<svg width="121" height="71" viewBox="0 0 121 71" fill="none" xmlns="http://www.w3.org/2000/svg">
<path d="M120.114 14.1108L119.314 13.3128L115.8 12.7429V1.40047C115.257 0.887495 114.971 0.602507 114.457 0.0610352H108.686C108.171 0.602507 107.857 0.887495 107.343 1.40047V11.3749L100.228 10.235C99.9713 10.235 99.7141 10.121 99.5713 9.95002C99.3998 9.77903 99.2855 9.55101 99.2855 9.29452V7.10017C99.2855 6.5587 98.857 6.15967 98.3141 6.15967H91.657C91.3141 6.15967 90.9998 6.33067 90.8284 6.61566L89.2284 9.43707C89.057 9.75055 88.7141 9.92149 88.3713 9.92149H32.7427C32.3998 9.92149 32.0855 9.75055 31.8855 9.43707L30.2855 6.61566C30.1141 6.33067 29.7998 6.15967 29.457 6.15967H22.7998C22.257 6.15967 21.8284 6.58719 21.8284 7.10017V9.29452C21.8284 9.55101 21.7141 9.80753 21.5427 9.95002C21.3713 10.121 21.1427 10.235 20.857 10.235L13.7427 11.3749V1.40047C13.2284 0.887495 12.9141 0.602507 12.3998 0.0610352H6.6284C6.11412 0.602507 5.8284 0.887495 5.28554 1.40047V12.7429L1.77126 13.3128L0.971257 14.1108C0.799828 14.2818 0.685547 14.5383 0.685547 14.7948V65.0376C0.685547 65.4936 0.999828 65.8926 1.45697 65.9781L23.7427 70.2243C23.7427 70.2243 23.857 70.2243 23.9141 70.2243H97.0855C97.0855 70.2243 97.1998 70.2243 97.257 70.2243L119.543 65.9781C120 65.8926 120.314 65.4936 120.314 65.0376V14.7948C120.314 14.5383 120.228 14.2818 120.028 14.1108H120.114ZM23.2855 36.8811H18.2855V39.3889H22.6855V41.1559H18.2855V44.6042H16.0855V35.1142H23.2855V36.8811ZM26.9713 44.6042H24.7713V35.1142H26.9713V44.6042ZM36.457 36.9096H33.3998V44.6042H31.1998V36.9096H28.1427V35.1142H36.457V36.9096ZM44.9713 36.9096H41.9427V44.6042H39.7427V36.9096H36.6855V35.1142H44.9713V36.9096ZM48.3713 44.6042H46.1713V35.1142H48.3713V44.6042ZM59.3427 44.6042H57.5427L52.7998 38.8475V44.6042H50.6284V35.1142H52.457L57.1998 40.8709V35.1142H59.3713V44.6042H59.3427ZM63.457 41.0703C63.5998 41.4408 63.8284 41.7543 64.0855 42.0678C64.3713 42.3528 64.6856 42.5523 65.0855 42.6948C65.457 42.8373 65.8855 42.8943 66.3427 42.8943C66.7998 42.8943 67.1998 42.8373 67.6284 42.6948C67.7713 42.6378 67.9141 42.5807 68.057 42.4953V39.7025H70.057V43.5498C69.5427 43.9488 68.9427 44.2337 68.257 44.4617C67.5713 44.6611 66.8856 44.7752 66.1998 44.7752C65.4284 44.7752 64.7713 44.6612 64.1141 44.4047C63.4855 44.1767 62.9427 43.8348 62.4855 43.3788C62.0284 42.9513 61.657 42.4098 61.3998 41.8113C61.1427 41.2129 61.0284 40.5574 61.0284 39.8449C61.0284 39.1325 61.1427 38.477 61.3998 37.8785C61.657 37.28 62.0284 36.7671 62.4855 36.3111C62.9427 35.8837 63.5141 35.5131 64.1427 35.2851C64.7713 35.0572 65.4855 34.9432 66.2284 34.9432C67.0855 34.9432 67.8284 35.0857 68.5141 35.3422C69.1713 35.6272 69.7427 36.0261 70.1998 36.5676L68.7998 37.8785C68.457 37.508 68.057 37.2515 67.657 37.0806C67.257 36.9096 66.7998 36.7956 66.3427 36.7956C65.8855 36.7956 65.457 36.8811 65.057 37.0236C64.6855 37.1661 64.3427 37.3656 64.057 37.6506C63.7713 37.9355 63.5713 38.249 63.4284 38.591C63.2855 38.9615 63.1998 39.3889 63.1998 39.8449C63.1998 40.3009 63.2855 40.6998 63.4284 41.0703H63.457ZM82.657 43.2933C82.3427 43.7493 81.9141 44.0912 81.3141 44.3762C80.7141 44.6612 79.9713 44.7752 79.057 44.7752C78.2856 44.7752 77.5713 44.6611 76.857 44.4617C76.1713 44.2622 75.5998 44.0057 75.1713 43.6637L75.9141 42.0108C76.3141 42.2958 76.7998 42.5523 77.3713 42.7233C77.9141 42.9228 78.4855 43.0083 79.057 43.0083C79.4855 43.0083 79.857 42.9512 80.1141 42.8657C80.3998 42.7803 80.5713 42.6662 80.7141 42.4953C80.857 42.3528 80.9141 42.1819 80.9141 41.9539C80.9141 41.7259 80.7998 41.4978 80.5998 41.3553C80.3998 41.2128 80.1427 41.0703 79.7998 40.9848C79.4855 40.8993 79.1141 40.8139 78.7141 40.7284C78.3141 40.6429 77.9141 40.5289 77.5141 40.3864C77.1141 40.2724 76.7427 40.1015 76.4284 39.902C76.0855 39.7025 75.8284 39.446 75.6284 39.104C75.4284 38.7905 75.3141 38.363 75.3141 37.8501C75.3141 37.3086 75.457 36.7956 75.7713 36.3681C76.057 35.9121 76.5141 35.5701 77.0855 35.2851C77.6855 35.0002 78.4284 34.8862 79.3427 34.8862C79.9427 34.8862 80.5427 34.9432 81.1141 35.0857C81.6855 35.2282 82.1998 35.4562 82.657 35.7127L81.9998 37.3656C81.5427 37.1091 81.1141 36.938 80.657 36.7956C80.1998 36.6816 79.7713 36.6246 79.3427 36.6246C78.9141 36.6246 78.5713 36.6816 78.2855 36.7671C78.0284 36.8526 77.8284 36.9951 77.6856 37.1376C77.5713 37.3086 77.5141 37.4795 77.5141 37.7075C77.5141 37.964 77.5998 38.1351 77.7998 38.3061C77.9998 38.4486 78.257 38.5625 78.5998 38.648C78.9427 38.7335 79.2855 38.819 79.6855 38.9329C80.0855 39.0184 80.4855 39.1325 80.857 39.2465C81.257 39.3605 81.6284 39.5315 81.9427 39.7025C82.257 39.9019 82.5427 40.1584 82.7427 40.5004C82.9427 40.8424 83.057 41.2414 83.057 41.7544C83.057 42.2958 82.9141 42.7802 82.6284 43.2077L82.657 43.2933ZM86.8284 44.6042H84.6284V35.1142H86.8284V44.6042ZM96.7713 44.6042H88.457V43.1793L93.6855 36.9096H88.5713V35.1142H96.5713V36.5391L91.3713 42.8373H96.7713V44.6326V44.6042ZM105.543 44.6042H98.1998V35.1142H105.371V36.8811H100.371V38.9329H104.771V40.6429H100.371V42.8373H105.543V44.6042Z" fill="white" style="fill:white;fill-opacity:1;"/>
</svg>
