<svg width="93" height="94" viewBox="0 0 93 94" fill="none" xmlns="http://www.w3.org/2000/svg">
<path d="M52.5143 41.3425C51.4857 41.086 50.5714 40.8295 49.5714 40.573C50.2 38.1506 50.8571 35.7567 51.3714 33.3629C51.5143 32.7929 51.3714 32.0235 51.0857 31.5105C49.6571 29.0596 48.1143 26.6373 46.5142 24.0439C46.1428 24.6139 45.8571 25.0128 45.6 25.4403C44.3428 27.4922 43.0571 29.5156 41.8571 31.596C41.6 32.052 41.4857 32.7359 41.6 33.2489C42.1428 35.6713 42.8 38.0366 43.4571 40.573C42.4571 40.8295 41.5142 41.0575 40.4857 41.314C40.0285 39.6041 39.6285 37.9797 39.1143 36.0703C38.2571 37.4097 37.5428 38.5496 36.7428 39.8036C35.8857 39.2906 35.0857 38.7776 34.1714 38.2076C34.8857 37.0107 35.5714 35.8708 36.4 34.5028C34.4857 34.9588 32.8285 35.3578 31.0571 35.7853C30.8 34.7878 30.5714 33.8758 30.3143 32.8214C32.8857 32.1944 35.3428 31.596 37.7714 30.9405C38.3142 30.798 38.9142 30.3705 39.2 29.886C40.7142 27.5492 42.1143 25.1838 43.6571 22.7045C43.2571 22.676 43 22.5904 42.7143 22.5904C40.2571 22.5904 37.8285 22.6475 35.4 22.562C34.2857 22.505 33.4857 22.8469 32.7714 23.6734C31.2571 25.4118 29.7143 27.0647 28.1428 28.7746C27.1143 27.7772 26.4 27.1217 25.6 26.3237C26.8857 25.0983 28.1143 23.9869 29.5428 22.619H25.1143V19.5411H29.4285C28.0285 18.2017 26.8 17.0333 25.4857 15.7508C26.4 14.9244 27.1143 14.2974 27.8857 13.5849C29.6285 15.2663 31.3714 17.0332 33.1714 18.7146C33.6 19.1136 34.3142 19.4271 34.9142 19.4271C37.7714 19.5126 40.6285 19.4556 43.6571 19.4556C43.1428 18.5722 42.7428 17.8312 42.2857 17.0903C41.2571 15.3803 40.2285 13.6704 39.1143 12.0175C38.8285 11.6185 38.3142 11.248 37.8285 11.1055C35.3714 10.4501 32.8857 9.85162 30.2857 9.19615C30.5428 8.2272 30.7714 7.28677 31.0285 6.23233C32.7714 6.65981 34.4285 7.05878 36.3714 7.51475C35.5714 6.14682 34.9143 5.03537 34.1714 3.80994C35.0285 3.29697 35.8285 2.7555 36.7428 2.21403C37.5143 3.43947 38.2285 4.60788 39.1143 5.97581C39.6 4.09491 40.0285 2.47052 40.4857 0.703613C41.4571 0.9601 42.4 1.18807 43.4571 1.44456C42.8285 3.92393 42.2 6.34632 41.6 8.76869C41.4857 9.19617 41.4857 9.79463 41.6857 10.1366C43.1714 12.6445 44.7143 15.1239 46.2571 17.6317C46.3143 17.7172 46.4285 17.7742 46.6 17.9167C48.2285 15.2378 49.8571 12.616 51.4571 9.9371C51.6285 9.68061 51.5142 9.19617 51.4571 8.85419C50.8571 6.43181 50.2285 3.98091 49.5714 1.47304C50.5428 1.24505 51.4857 0.988583 52.5143 0.732096C52.9714 2.44201 53.4 4.09491 53.9143 5.97581C54.7428 4.63638 55.4857 3.49645 56.2857 2.24251C57.1428 2.75549 57.9714 3.26847 58.8857 3.80994C58.1428 5.00688 57.4571 6.14681 56.6 7.54324C58.5428 7.08726 60.1714 6.6883 61.9714 6.23233C62.2285 7.22978 62.4857 8.14173 62.7714 9.16767C60.2 9.82314 57.7428 10.3931 55.3143 11.0771C54.7428 11.2481 54.1428 11.704 53.8 12.1885C52.2857 14.4969 50.8857 16.8908 49.3142 19.3986C52.6285 19.3986 55.7143 19.3986 58.8285 19.3986C59.1428 19.3986 59.4857 19.0851 59.7428 18.8287C61.2571 17.3752 62.7428 15.8933 64.2571 14.4399C64.5714 14.1264 64.9143 13.8414 65.2571 13.5279C66 14.2119 66.6571 14.8673 67.4571 15.6368C66.1428 16.8622 64.9143 18.0307 63.6857 19.1991C63.7428 19.2846 63.7714 19.3701 63.8285 19.4271H67.9428V22.562H63.8285C65.1143 23.7874 66.3142 24.9558 67.6857 26.2382C66.6857 27.0647 65.9428 27.6632 65.1143 28.3756C63.5143 26.8082 61.7428 25.1268 60.0571 23.4169C59.4857 22.847 58.9428 22.5619 58.0857 22.5904C55.6 22.6474 53.1428 22.5904 50.6571 22.5904H49.3714C50.8571 25.0128 52.2571 27.2072 53.5428 29.4871C54.0857 30.4275 54.7428 30.8835 55.7714 31.1115C58.0571 31.6245 60.3428 32.2229 62.7714 32.8214C62.5142 33.8188 62.2857 34.7308 62 35.7853C60.2571 35.3578 58.6 34.9588 56.6571 34.4743C57.4857 35.8422 58.1428 36.9537 58.8857 38.1791C58.0285 38.7206 57.2285 39.2336 56.3143 39.8036C55.5428 38.5781 54.8285 37.4097 53.9714 36.0417C53.4571 37.9226 53.0285 39.5756 52.5714 41.314L52.5143 41.3425Z" fill="white" style="fill:white;fill-opacity:1;"/>
<path d="M40.4282 73.1469H43.4568C43.3425 70.354 42.3139 68.0456 40.2282 66.2217C39.6282 65.7088 38.9711 65.2243 38.2568 64.9678C37.4568 64.6544 37.3425 64.1699 37.3425 63.4289C37.4854 58.8121 41.5997 54.8794 46.3711 54.7939C51.1425 54.7084 55.3997 58.6126 55.6568 63.2864C55.7997 66.1077 54.9139 68.5301 52.9425 70.6105C53.6568 71.2945 54.3139 71.9499 55.0854 72.6909C56.7139 71.1805 57.7139 69.2996 58.3425 67.2192C61.5711 66.8202 64.5997 69.3851 64.8568 72.6909C65.114 76.2247 62.4854 79.2456 58.9997 79.3026C53.4854 79.3596 47.9711 79.3026 42.4568 79.3026C39.7425 79.3026 37.0568 79.3026 34.3425 79.3026C30.9711 79.3026 28.2854 76.7947 28.1711 73.5459C28.0282 70.2116 30.4282 67.3902 33.6568 67.1052C37.1425 66.7917 39.9425 69.1001 40.3711 72.6339C40.3711 72.7764 40.3997 72.9189 40.4568 73.1469H40.4282Z" fill="white" style="fill:white;fill-opacity:1;"/>
<path d="M19 39.4901C23.4 39.5756 26.6286 42.9384 26.5715 47.4127C26.5143 51.5735 22.9715 54.8793 18.6858 54.7653C14.6001 54.6798 11.2001 51.1175 11.2858 46.9567C11.3715 42.8244 14.8858 39.4046 19 39.4901Z" fill="white" style="fill:white;fill-opacity:1;"/>
<path d="M58.8284 47.1277V44.0784H60.1427C68.657 44.0784 77.1712 44.0784 85.6855 44.0784C86.4284 44.0784 87.257 43.8789 87.9141 43.5369C89.0855 42.9385 89.5998 41.5135 89.2855 40.3736C88.9141 38.9772 87.8855 38.0652 86.4855 38.0082C85.4855 37.9797 84.457 38.0082 83.3712 38.0082V34.9304C86.0855 34.7309 88.8284 34.5884 90.8855 36.9253C92.5427 38.8347 92.9141 41.0575 91.9427 43.3374C90.9141 45.7883 88.9712 47.0707 86.3141 47.1277C83.057 47.1847 79.7998 47.1277 76.5141 47.1277C71.0284 47.1277 65.5712 47.1277 60.0855 47.1277H58.7998H58.8284Z" fill="white" style="fill:white;fill-opacity:1;"/>
<path d="M63.3428 53.2833V50.2625C63.5999 50.234 63.8285 50.177 64.0856 50.177C69.4571 50.177 74.8285 50.177 80.1713 50.177C83.2571 50.177 85.8571 52.5139 86.2285 55.5062C86.5999 58.6125 84.6856 61.6904 81.6856 62.2034C79.7714 62.5454 77.7428 62.2603 75.6856 62.2603V59.4105C77.1713 59.4105 78.6571 59.4105 80.1428 59.4105C81.4856 59.4105 82.6285 58.527 83.0571 57.3301C83.4856 56.1332 83.1713 54.7652 82.0571 54.0243C81.4571 53.6253 80.5999 53.3688 79.8856 53.3688C74.8571 53.3118 69.8285 53.3403 64.7999 53.3403H63.3428V53.2833Z" fill="white" style="fill:white;fill-opacity:1;"/>
<path d="M46.9139 84.5461C47.5996 85.2301 48.2568 85.8856 48.8854 86.5125C46.3997 88.9634 43.8854 91.4428 41.3711 93.8936C40.7997 93.3237 40.1139 92.6397 39.4282 91.9843C41.9139 89.5334 44.3997 87.0255 46.8854 84.5461H46.9139Z" fill="white" style="fill:white;fill-opacity:1;"/>
<path d="M30.5998 93.9507C30.057 93.3808 29.3998 92.7253 28.7998 92.0983C31.3141 89.6189 33.8284 87.1396 36.4284 84.5747C36.8855 85.1447 37.5141 85.8857 38.1141 86.5981C35.7427 88.935 33.1998 91.4144 30.6284 93.9507H30.5998Z" fill="white" style="fill:white;fill-opacity:1;"/>
<path d="M57.6569 84.5461C58.3426 85.1446 59.0283 85.8001 59.7426 86.4555C57.1426 89.0204 54.5997 91.5283 52.1426 93.9507C51.4854 93.3807 50.7997 92.7252 50.1426 92.1268C52.714 89.5334 55.1997 87.0255 57.6854 84.5461H57.6569Z" fill="white" style="fill:white;fill-opacity:1;"/>
<path d="M20.4285 33.249H17.457V28.8032H20.4285V33.249Z" fill="white" style="fill:white;fill-opacity:1;"/>
<path d="M17.4282 65.4236V61.0063H20.3997V65.4236H17.4282Z" fill="white" style="fill:white;fill-opacity:1;"/>
<path d="M37.2855 45.7026V48.581H32.7427V45.7026H37.2855Z" fill="white" style="fill:white;fill-opacity:1;"/>
<path d="M7.60006 60.294C7.0572 59.7241 6.42863 59.0686 5.77148 58.3846C6.77148 57.4441 7.74292 56.5037 8.80006 55.4778C9.28577 56.0478 9.91434 56.7602 10.5429 57.4727C9.6572 58.3276 8.6572 59.2966 7.57149 60.294H7.60006Z" fill="white" style="fill:white;fill-opacity:1;"/>
<path d="M7.71411 33.876C8.74268 34.9304 9.71411 35.8709 10.7141 36.8683C10.057 37.5523 9.39982 38.2362 8.77125 38.8632C7.74268 37.8373 6.77125 36.8683 5.74268 35.8709C6.39982 35.2154 7.05696 34.5314 7.71411 33.876Z" fill="white" style="fill:white;fill-opacity:1;"/>
<path d="M55.6 47.0706H51.1714V44.1638H55.6V47.0706Z" fill="white" style="fill:white;fill-opacity:1;"/>
<path d="M27.1714 57.3586C27.8571 56.7031 28.5428 56.0192 29.2285 55.3352C30.1714 56.3327 31.1142 57.3301 32.1142 58.3276C31.4857 58.926 30.8 59.61 30.1143 60.2654C29.1714 59.2965 28.2 58.356 27.1714 57.3301V57.3586Z" fill="white" style="fill:white;fill-opacity:1;"/>
<path d="M5.14269 45.7026V48.524H0.685547V45.7026H5.14269Z" fill="white" style="fill:white;fill-opacity:1;"/>
</svg>
