<svg width="34" height="34" viewBox="0 0 34 34" fill="none" xmlns="http://www.w3.org/2000/svg">
<path d="M17.007 2.8335C20.8036 2.8335 23.9249 5.81687 24.0833 9.59712H24.0463C24.0508 9.70701 24.0296 9.81643 23.9846 9.91683H24.2058C25.9299 9.91683 27.7353 11.1118 28.4592 13.9966L28.5378 14.3369L29.6271 23.1127C30.411 28.71 27.3487 31.0638 23.1713 31.1635L22.8912 31.1668H11.1471C6.90168 31.1668 3.63027 29.6198 4.34956 23.4935L4.39861 23.1127L5.50041 14.3369C6.0437 11.2303 7.86761 10.005 9.625 9.92145L9.81993 9.91683H9.93067C9.912 9.81107 9.912 9.70288 9.93067 9.59712C10.0891 5.81687 13.2104 2.8335 17.007 2.8335ZM12.8874 14.6333C12.1959 14.6333 11.6354 15.2103 11.6354 15.922C11.6354 16.6337 12.1959 17.2106 12.8874 17.2106C13.5789 17.2106 14.1394 16.6337 14.1394 15.922L14.1297 15.7603C14.0524 15.1249 13.5257 14.6333 12.8874 14.6333ZM21.0882 14.6333C20.3968 14.6333 19.8362 15.2103 19.8362 15.922C19.8362 16.6337 20.3968 17.2106 21.0882 17.2106C21.7797 17.2106 22.3403 16.6337 22.3403 15.922C22.3403 15.2103 21.7797 14.6333 21.0882 14.6333ZM16.9515 4.67854C14.2257 4.67854 12.0159 6.88066 12.0159 9.59712C12.0346 9.70288 12.0346 9.81107 12.0159 9.91683H21.9487C21.9093 9.81475 21.8884 9.70649 21.887 9.59712C21.887 6.88066 19.6773 4.67854 16.9515 4.67854Z" fill="white" style="fill:white;fill-opacity:1;"/>
</svg>
