<svg width="136" height="81" viewBox="0 0 136 81" fill="none" xmlns="http://www.w3.org/2000/svg">
<g clip-path="url(#clip0_750_4561)">
<path d="M135.149 17.4634V74.2542C135.149 74.7678 134.774 75.2301 134.263 75.3157L109.263 80.1096C109.263 80.1096 109.127 80.1267 109.059 80.1267H26.9412C26.9412 80.1267 26.8049 80.1267 26.7368 80.1096L1.73705 75.3157C1.22616 75.213 0.851501 74.7678 0.851501 74.2542V17.4634C0.851501 17.1724 0.97071 16.8984 1.17507 16.693L2.06062 15.8027L5.9945 15.1692V2.36262C6.59054 1.76338 6.91411 1.43807 7.49312 0.855957H13.9644C14.5605 1.43807 14.8841 1.7805 15.4631 2.36262V13.6112L23.45 12.31C23.7396 12.31 24.012 12.1901 24.2164 12.0018C24.4207 11.8135 24.54 11.5395 24.54 11.2314V8.78303C24.54 8.18379 25.0168 7.7044 25.6128 7.7044H33.0719C33.4636 7.7044 33.8212 7.90986 34.0085 8.25228L35.8307 11.4368C36.018 11.7792 36.3757 11.9847 36.7674 11.9847H99.2327C99.6244 11.9847 99.982 11.7792 100.169 11.4368L101.991 8.25228C102.179 7.90986 102.536 7.7044 102.928 7.7044H110.387C110.983 7.7044 111.46 8.18379 111.46 8.78303V11.2314C111.46 11.5224 111.579 11.7964 111.784 12.0018C111.971 12.1901 112.243 12.31 112.55 12.31L120.537 13.6112V2.36262C121.116 1.76338 121.457 1.43807 122.036 0.855957H128.507C129.086 1.43807 129.426 1.7805 130.006 2.36262V15.1692L133.939 15.8027L134.825 16.693C135.029 16.8984 135.149 17.1724 135.149 17.4634Z" stroke="white" style="stroke:white;stroke-opacity:1;" stroke-width="3" stroke-miterlimit="10"/>
<path d="M43.1706 31.9992H39.5773V30.6467H30.245V33.5401H39.7816C40.2415 33.5401 40.6672 33.6257 41.0929 33.797C41.5017 33.9682 41.8593 34.2079 42.1828 34.516C42.4894 34.8242 42.7448 35.1838 42.9151 35.5947C43.0854 36.0056 43.1706 36.4507 43.1706 36.9301V40.2003C43.1706 40.6796 43.0854 41.1248 42.9151 41.5357C42.7448 41.9466 42.4894 42.3061 42.1828 42.6143C41.8763 42.9225 41.5017 43.1622 41.0929 43.3334C40.6842 43.5046 40.2415 43.5902 39.7816 43.5902H30.0747C29.5978 43.5902 29.155 43.5046 28.7463 43.3334C28.3376 43.1622 27.98 42.9225 27.6735 42.6143C27.3669 42.3061 27.1285 41.9466 26.9582 41.5357C26.7879 41.1248 26.7028 40.6796 26.7028 40.2003V38.6594H30.245V40.0119H39.5773V37.1185H30.0747C29.5978 37.1185 29.155 37.0328 28.7463 36.8616C28.3376 36.6904 27.98 36.4507 27.6735 36.1426C27.3669 35.8344 27.1285 35.4748 26.9582 35.0639C26.7879 34.653 26.7028 34.2079 26.7028 33.7285V30.4583C26.7028 29.9789 26.7879 29.5338 26.9582 29.1229C27.1285 28.712 27.3669 28.3524 27.6735 28.0443C27.98 27.7361 28.3376 27.4964 28.7463 27.3252C29.155 27.154 29.5978 27.0684 30.0747 27.0684H39.7816C40.2415 27.0684 40.6672 27.154 41.0929 27.3252C41.5017 27.4964 41.8593 27.7361 42.1828 28.0443C42.4894 28.3524 42.7448 28.712 42.9151 29.1229C43.0854 29.5338 43.1706 29.9789 43.1706 30.4583V31.9992Z" fill="white" style="fill:white;fill-opacity:1;"/>
<path d="M69.5837 27.0513L63.5893 43.6074H60.8645L56.9817 32.9581L55.5171 37.0158C55.1254 38.0944 54.7167 39.1901 54.291 40.3201C53.8652 41.4501 53.4736 42.5459 53.1159 43.6074H50.3912L44.3967 27.0513H48.1773L51.7706 36.913L52.3496 35.3721C52.8434 34.0196 53.3373 32.6328 53.8652 31.2117C54.3761 29.7906 54.887 28.4038 55.3809 27.0513H58.6506L62.2609 36.913L62.8399 35.3721C63.3338 34.0196 63.8277 32.6328 64.3556 31.2117C64.8665 29.7906 65.3774 28.4038 65.8713 27.0513H69.6178H69.5837Z" fill="white" style="fill:white;fill-opacity:1;"/>
<path d="M71.8658 27.0513H75.442V43.6074H71.8658V27.0513Z" fill="white" style="fill:white;fill-opacity:1;"/>
<path d="M92.1482 27.0513V30.6467H80.5169V33.5402H89.8833V37.1356H80.5169V43.6245H76.9236V27.0684H92.1482V27.0513Z" fill="white" style="fill:white;fill-opacity:1;"/>
<path d="M109.297 27.0513V30.6467H102.843V43.6245H99.2667V30.6467H92.8124V27.0513H109.28H109.297Z" fill="white" style="fill:white;fill-opacity:1;"/>
<path d="M32.6972 61.7215H42.0296V48.7437H45.6228V61.9098C45.6228 62.3892 45.5377 62.8343 45.3674 63.2452C45.1971 63.6561 44.9417 64.0157 44.6351 64.3239C44.3286 64.632 43.9539 64.8717 43.5452 65.043C43.1365 65.2142 42.6937 65.2998 42.2339 65.2998H32.5269C32.0501 65.2998 31.6073 65.2142 31.1986 65.043C30.7899 64.8717 30.4323 64.632 30.1257 64.3239C29.8192 64.0157 29.5808 63.6561 29.4105 63.2452C29.2402 62.8343 29.155 62.3892 29.155 61.9098V59.7697H32.6972V61.7215Z" fill="white" style="fill:white;fill-opacity:1;"/>
<path d="M61.2221 48.7437C61.6819 48.7437 62.1077 48.8293 62.5334 49.0005C62.9421 49.1717 63.2998 49.4114 63.6233 49.7196C63.9299 50.0277 64.1853 50.3873 64.3556 50.7982C64.5259 51.2091 64.6111 51.6542 64.6111 52.1336V61.8927C64.6111 62.3721 64.5259 62.8172 64.3556 63.2281C64.1853 63.639 63.9299 63.9986 63.6233 64.3067C63.3168 64.6149 62.9421 64.8546 62.5334 65.0258C62.1247 65.197 61.6819 65.2827 61.2221 65.2827H51.5151C51.0383 65.2827 50.5955 65.197 50.1868 65.0258C49.7781 64.8546 49.4205 64.6149 49.1139 64.3067C48.8074 63.9986 48.569 63.639 48.3987 63.2281C48.2284 62.8172 48.1432 62.3721 48.1432 61.8927V52.1336C48.1432 51.6542 48.2284 51.2091 48.3987 50.7982C48.569 50.3873 48.8074 50.0277 49.1139 49.7196C49.4205 49.4114 49.7781 49.1717 50.1868 49.0005C50.5955 48.8293 51.0383 48.7437 51.5151 48.7437H61.2221ZM51.6854 61.7215H61.0178V52.3391H51.6854V61.7215Z" fill="white" style="fill:white;fill-opacity:1;"/>
<path d="M67.1485 48.7437H70.7248V65.2998H67.1485V48.7437Z" fill="white" style="fill:white;fill-opacity:1;"/>
<path d="M85.0468 48.7437H88.6401V65.2998H84.9787L75.7145 54.2053V65.2998H72.1723V48.7437H75.8337L85.0639 59.7868V48.7437H85.0468Z" fill="white" style="fill:white;fill-opacity:1;"/>
<path d="M106.862 48.7437V52.3391H100.408V65.3169H96.8314V52.3391H90.3771V48.7437H106.845H106.862Z" fill="white" style="fill:white;fill-opacity:1;"/>
</g>
<defs>
<clipPath id="clip0_750_4561">
<rect width="136" height="81" fill="white" style="fill:white;fill-opacity:1;"/>
</clipPath>
</defs>
</svg>
